<svg width="639" height="619" fill="none" xmlns="http://www.w3.org/2000/svg"><path fill-rule="evenodd" clip-rule="evenodd" d="M408 619c225.332 0 408-182.668 408-408S633.332-197 408-197 0-14.332 0 211s182.668 408 408 408z" fill="url(#paint0_linear)"/><path fill-rule="evenodd" clip-rule="evenodd" d="M583.299 542.835h-42.911l-5.716-83.625h54.683l-6.056 83.625z" fill="#D3D5D7"/><path fill-rule="evenodd" clip-rule="evenodd" d="M550.398 440.866s6.804-33.636-6.808-47.24c-13.612-13.605-21.374-18.468-21.374-18.468s-25.293 40.457 28.182 65.708zm3.111-93.831s6.804-33.635-6.808-47.236c-13.612-13.6-21.374-18.467-21.374-18.467s-25.301 40.433 28.182 65.703z" fill="#EBECF0"/><path fill-rule="evenodd" clip-rule="evenodd" d="M558.564 292.344s5.965-21.898-5.316-34.343c-11.281-12.445-23.464-15.552-23.464-15.552s-1.556 34.475 28.78 49.895z" fill="#D3D5D7"/><path fill-rule="evenodd" clip-rule="evenodd" d="M569.453 423.177s-2.723-48.794 29.75-69.205c0 0 .209 57.536-29.75 69.205z" fill="#EBECF0"/><path fill-rule="evenodd" clip-rule="evenodd" d="M561.707 393.749s-3.919-33.956-28.725-44.169c0 0 6.685 39.681 28.725 44.169zm13.774-57.469s-19.641-34.799 20.223-60.65c0 0 15.298 43.524-20.223 60.65z" fill="#D3D5D7"/><path d="M552.1 272.907s11 21.511 11 54.43v48.989m-20.998-55.21s9.202 16.462 11.407 25.919c2.205 9.458 4.089 39.789 4.089 70.503v66.875m-18.608-68.691s10.292 16.462 11.408 25.143c1.116 8.682 0 44.518 0 44.518" stroke="#D3D5D7" stroke-width="2" stroke-linecap="round"/><path d="M553.022 381.478s6.187 7.518 8.685 12.266c2.497 4.749 4.536 21.764 4.536 29.429v57.152m17.016-170.289s-7.778 15.164-7.778 26.244v144.037" stroke="#D3D5D7" stroke-width="2" stroke-linecap="round"/><path d="M157.139 137.86h-.752v21.384h.752V137.86zm32.9 21.384h-.752v21.384h.752v-21.384zm-22.419 21.384h-.752v21.384h.752v-21.384z" fill="#D3D5D7"/><path d="M222.833 158.868h-96.319v.752h96.319v-.752zm-10.216 21.384h-96.319v.752h96.319v-.752zm26.001 21.384H142.3v.752h96.318v-.752z" fill="#D3D5D7"/><path fill-rule="evenodd" clip-rule="evenodd" d="M552.076 130.049v65.165H447.489v-65.165h104.587z" fill="#EBECF0"/><path d="M561.105 203.021H438.46v-80.784h122.645v80.784zm-122.269-.396h121.893v-79.988H438.836v79.988z" fill="#DEDFED"/><path fill-rule="evenodd" clip-rule="evenodd" d="M632.523 554.078s30.514-.503 18.504 5.346c-12.009 5.848-118.389 7.122-165.345 12.48-46.957 5.358-159.912 4.108-90.715-3.423 69.198-7.53 185.949-15.666 237.556-14.403zM157.309 571.92s78.178 1.8 63.802 6.727c-14.376 4.927-154.496 4.428-168.013 3.957-13.518-.471-46.042-6.573 0-7.368 46.041-.795 104.211-3.316 104.211-3.316z" fill="#D3D5D7"/><path d="M89.699 172.377s176.267-2.524 130.296 75.941c-45.97 78.465-167.483 171.068-6.729 174.226 160.755 3.158 236.566-185.722 369.981-208.142" stroke="#1F2055" stroke-width="2" stroke-linecap="round" stroke-dasharray="8 8"/><path fill-rule="evenodd" clip-rule="evenodd" d="M99.543 177.288l-4.057 4.349-30.933-12.896 34.99 8.547z" fill="#1F2055"/><path fill-rule="evenodd" clip-rule="evenodd" d="M98.102 162.928l3.056 4.61-2.066 4.515 4.631.787 4.097 8.987-44.26-13.387 34.542-5.512z" fill="#2F3E8A"/><path fill-rule="evenodd" clip-rule="evenodd" d="M99.092 172.053l2.066-4.515-23.975 1.12 21.909 3.395zm476.405 44.26l4.061 4.349 30.933-12.896-34.994 8.547z" fill="#1F2055"/><path fill-rule="evenodd" clip-rule="evenodd" d="M576.942 201.953l-3.056 4.61 2.066 4.515-4.635.787-4.093 8.987 44.261-13.387-34.543-5.512z" fill="#2F3E8A"/><path fill-rule="evenodd" clip-rule="evenodd" d="M575.952 211.078l-2.066-4.515 23.975 1.12-21.909 3.395z" fill="#1F2055"/><path fill-rule="evenodd" clip-rule="evenodd" d="M471.887 538.752H211.509c-14.668-.007-26.556-11.896-26.556-26.56V172.888c0-14.669 11.895-26.56 26.568-26.56h94.703a26.575 26.575 0 0122.107 11.828l5.478 8.219a26.579 26.579 0 0022.107 11.816h115.975c14.671.008 26.558 11.904 26.552 26.571v307.43c0 14.664-11.888 26.553-26.556 26.56z" fill="url(#paint1_linear)"/><path d="M467.952 211.402H212.044a5.405 5.405 0 00-5.404 5.404v20.181a5.404 5.404 0 005.404 5.403h255.908a5.404 5.404 0 005.404-5.403v-20.181a5.405 5.405 0 00-5.404-5.404z" fill="#EBECF0"/><path fill-rule="evenodd" clip-rule="evenodd" d="M441.532 242.394h-43.837c-8.561 0-15.501-6.938-15.501-15.496s6.94-15.496 15.501-15.496h43.837c8.56 0 15.5 6.938 15.5 15.496s-6.94 15.496-15.5 15.496z" fill="#303D8B"/><path d="M457.349 274.364H226.046a3.688 3.688 0 00-3.688 3.688v257.012a3.688 3.688 0 003.688 3.688h231.303a3.689 3.689 0 003.689-3.688V278.052a3.689 3.689 0 00-3.689-3.688z" fill="#EBECF0"/><path fill-rule="evenodd" clip-rule="evenodd" d="M405.908 403.653h-128.42c-8.621 0-15.607-2.481-15.607-5.54 0-3.063 6.986-5.54 15.607-5.54h128.42c8.621 0 15.607 2.481 15.607 5.54s-6.986 5.54-15.607 5.54zm0-20.09h-128.42c-8.621 0-15.607-2.481-15.607-5.54 0-3.063 6.986-5.54 15.607-5.54h128.42c8.621 0 15.607 2.481 15.607 5.54 0 3.043-6.986 5.54-15.607 5.54zm.087-19.556h-128.42c-8.621 0-15.611-2.481-15.611-5.54 0-3.063 6.99-5.54 15.611-5.54h128.42c8.621 0 15.611 2.481 15.611 5.54s-6.99 5.54-15.611 5.54zm-.087 58.537h-128.42c-8.621 0-15.607-2.172-15.607-4.851s6.986-4.851 15.607-4.851h128.42c8.621 0 15.607 2.172 15.607 4.851 0 2.671-6.986 4.851-15.607 4.851z" fill="#303D8B"/><path d="M283.49 449.457h-14.062a2.243 2.243 0 00-2.243 2.243v13.324a2.243 2.243 0 002.243 2.243h14.062a2.243 2.243 0 002.243-2.243V451.7a2.243 2.243 0 00-2.243-2.243z" fill="#303D8B"/><path fill-rule="evenodd" clip-rule="evenodd" d="M419.338 484.524h-46.707c-6.021 0-10.902-4.878-10.905-10.898 0-6.02 4.883-10.901 10.905-10.901h46.707c6.023 0 10.905 4.881 10.905 10.901-.002 6.02-4.884 10.898-10.905 10.898z" fill="#0A1658"/><path fill-rule="evenodd" clip-rule="evenodd" d="M405.267 473.626c0-6.021-4.883-10.902-10.905-10.902h-21.743a10.905 10.905 0 00-9.616 5.389 10.897 10.897 0 000 11.022 10.905 10.905 0 009.616 5.389h21.743c6.021 0 10.902-4.878 10.905-10.898z" fill="#E0A010"/><path fill-rule="evenodd" clip-rule="evenodd" d="M522.291 524.902a34.63 34.63 0 01-21.336 32.029 34.648 34.648 0 01-37.763-7.455 34.621 34.621 0 01-7.556-37.733 34.635 34.635 0 0131.981-21.414 34.307 34.307 0 0124.598 10.009 34.282 34.282 0 0110.076 24.564z" fill="#0A1658"/><path fill-rule="evenodd" clip-rule="evenodd" d="M522.291 524.902a34.283 34.283 0 01-7.062 20.901 34.698 34.698 0 01-34.07-1.017 34.68 34.68 0 01-16.757-29.674 33.923 33.923 0 016.967-20.727 34.646 34.646 0 0134.081.873 34.627 34.627 0 0116.825 29.644h.016z" fill="#FCB614"/><path fill-rule="evenodd" clip-rule="evenodd" d="M485.357 540.37a4.417 4.417 0 01-3.642-1.919l-9.001-13.185a4.407 4.407 0 011.15-6.127 4.411 4.411 0 016.13 1.149l5.355 7.823 15.041-22.286a4.411 4.411 0 016.121-1.193 4.408 4.408 0 011.194 6.12l-18.655 27.671a4.398 4.398 0 01-3.642 1.947h-.051z" fill="#303D8B"/><path d="M341.935 338.625c13.459-.134 24.26-11.182 24.126-24.676-.134-13.494-11.154-24.325-24.613-24.191-13.458.133-24.26 11.181-24.126 24.676.134 13.494 11.154 24.325 24.613 24.191z" fill="#2F3E8A"/><path fill-rule="evenodd" clip-rule="evenodd" d="M352.524 324.1l-21.466.225v-3.134a5.81 5.81 0 012.565-4.843l4.089-2.75a7.478 7.478 0 014.006-13.779 7.478 7.478 0 014.1 13.751l4.101 2.723a5.825 5.825 0 012.597 4.827l.008 2.98z" fill="#fff"/><path fill-rule="evenodd" clip-rule="evenodd" d="M565.336 290.627h-36.019a4.543 4.543 0 00-4.544 4.543v31.898a1.298 1.298 0 002.22.918l8.229-8.227a3.874 3.874 0 012.728-1.128h27.386a4.623 4.623 0 004.62-4.618v-18.768a4.619 4.619 0 00-4.62-4.618z" fill="#2F3E8A"/><path fill-rule="evenodd" clip-rule="evenodd" d="M560.982 298.937h-25.728a1.667 1.667 0 00-1.663 1.662c.003.917.746 1.66 1.663 1.662h25.728a1.667 1.667 0 001.663-1.662 1.667 1.667 0 00-1.663-1.662zm-10.109 9.529h-15.619a1.667 1.667 0 00-1.663 1.662 1.668 1.668 0 001.663 1.662h15.627a1.67 1.67 0 001.666-1.662 1.669 1.669 0 00-1.674-1.662z" fill="#1F2055"/><path fill-rule="evenodd" clip-rule="evenodd" d="M185.745 470.544c3.115 4.384 13.28.478 19.636-2.572 2.447-27.356.345-54.213-9.574-64.248-13.985-14.15-24.308 3.906-22.808 22.002.452 5.453 2.276 15.128 4.465 26.575 3.381 8.449 6.583 15.853 8.281 18.243z" fill="#DF7126"/><path fill-rule="evenodd" clip-rule="evenodd" d="M186.41 536.623a23.247 23.247 0 01-.978-.273c.162.542.499.609.978.273z" fill="#C54F28"/><path fill-rule="evenodd" clip-rule="evenodd" d="M205.377 467.972c-6.356 3.05-16.521 6.956-19.636 2.572-1.694-2.375-4.896-9.794-8.281-18.242 5.067 26.512 12.108 62.597 8.649 77.954-.748 3.324-.926 5.279-.677 6.114.321.099.645.186.978.273.677-.475 1.631-1.769 2.771-3.704 7.587-13.086 13.901-39.25 16.196-64.967z" fill="#BF6328"/><path fill-rule="evenodd" clip-rule="evenodd" d="M185.44 536.381c.265.843.994.475 2.015-.842 18.39-50.334-1.089-128.293-1.148-128.546a.805.805 0 10-1.56.396c.064.237 19.807 79.264.693 128.992z" fill="#141444"/><path fill-rule="evenodd" clip-rule="evenodd" d="M219.259 492.288c4.587-4.191 10.719-12.964 16.486-19.786 3.717-11.594.447-23.453-12.096-17.933-9.354 4.115-17.975 20.644-24.035 39.408 1.485 15.381 14.396 3.107 19.645-1.689z" fill="#FCB614"/><path fill-rule="evenodd" clip-rule="evenodd" d="M191.322 550.275c.732 4.831 1.939 5.662 2.992-1.069 2.72-17.371 33.281-59.419 39.582-72.125a33.532 33.532 0 001.861-4.594c-5.767 6.837-11.899 15.61-16.486 19.785-5.249 4.796-18.16 17.071-19.645 1.674-6.642 20.541-10.204 43.745-8.304 56.329z" fill="#DFA026"/><path fill-rule="evenodd" clip-rule="evenodd" d="M193.036 553.86c-.44.534-.859.059-1.223-1.187 1.12-41.835 37.674-92.849 37.789-92.992a.625.625 0 111.021.724c-.115.139-37.172 51.85-37.587 93.455z" fill="#141444"/><path fill-rule="evenodd" clip-rule="evenodd" d="M170.45 452.935c-2.137-4.207-2.96-9.288-3.261-13.158a20.851 20.851 0 00-5.696-4.673c-14.717-7.74-18.374 9.248-12.607 23.28 3.483 8.476 15.615 29.025 25.032 48.106 2.976-5.046.312-46.112-3.468-53.555z" fill="#FCB614"/><path fill-rule="evenodd" clip-rule="evenodd" d="M188.864 539.682c5.146-22.951-4.797-80.978-21.675-99.905.301 3.87 1.124 8.951 3.261 13.158 3.78 7.443 6.444 48.51 3.468 53.555 6.182 12.516 11.194 24.403 11.831 31.827.625 7.269 1.975 6.469 3.115 1.365z" fill="#DFA026"/><path fill-rule="evenodd" clip-rule="evenodd" d="M186.77 543.382c.427.605.91.126 1.389-1.187 1.928-44.739-33.292-101.915-33.407-102.093a.668.668 0 10-1.14.696c.111.19 35.814 58.142 33.158 102.584z" fill="#141444"/><path fill-rule="evenodd" clip-rule="evenodd" d="M223.308 532.749l-1.219 5.948-5.189 25.578h-47.689l-5.189-25.578-1.215-5.948h60.501z" fill="#2F3E8A" stroke="#141444"/><path opacity=".68" fill-rule="evenodd" clip-rule="evenodd" d="M222.813 535.163h-21.58l-32.022 29.112H216.9l5.913-29.112z" fill="#141444"/><path d="M226.962 524.946h-69.653v10.217h69.653v-10.217z" fill="#2F3E8A" stroke="#141444"/><path fill-rule="evenodd" clip-rule="evenodd" d="M475.426 342.362s-26.971 26.049-32.188 31.633c-5.217 5.583-21.422 36.686-5.961 36.314 15.46-.372 39.071-15.536 40.864-20.059 1.793-4.523-2.715-47.888-2.715-47.888z" fill="#C9E2F4"/><path fill-rule="evenodd" clip-rule="evenodd" d="M535.068 360.96c-4.671-6.913-13.723-13.189-21.584-17.732 0 0-25.111-9.576-34.298 9.893-9.187 19.469-5.822 40.73-5.822 40.73s-.396-.415-1.073-1.187c.301 3.166.673 7.994 1.073 13.589l62.935-30.292s1.48 17.321-17.487 29.611c-18.968 12.291-44.031 22.025-44.031 22.025a6911.857 6911.857 0 011.777 28.768c9.689.61 24.588 11.476 42.099 13.917 17.511 2.442 50.313-11.139 50.313-11.139s-24.588-84.4-33.902-98.183z" fill="#fff"/><path fill-rule="evenodd" clip-rule="evenodd" d="M536.319 375.95l-62.936 30.291c.467 6.521.97 14.091 1.437 21.345 0 0 25.064-9.735 44.031-22.025 18.968-12.291 17.468-29.611 17.468-29.611zm-57.133-22.809c9.187-19.489 34.298-9.893 34.298-9.893a144.422 144.422 0 00-14.448-7.308c-15.634-3.166-28.792 10.003-30.046 13.375-1.255 3.371 1.817 32.8 2.933 40.065.103.673.229 1.8.368 3.292a92.022 92.022 0 001.073 1.187s-3.365-21.233 5.822-40.718z" fill="#C9E2F4"/><path fill-rule="evenodd" clip-rule="evenodd" d="M493.079 237.902l24.298 12.249-95.271 188.879-24.298-12.249 95.271-188.879z" fill="#303D8B"/><path fill-rule="evenodd" clip-rule="evenodd" d="M399.029 427.394l21.853 11.016-3.748 7.431-21.853-11.017 3.748-7.43zm-3.312 11.793l17.65 8.898-3.747 7.431-17.651-8.898 3.748-7.431zm-3.982 11.974l14.374 7.246-3.748 7.431-14.374-7.246 3.748-7.431z" fill="#303D8B"/><path fill-rule="evenodd" clip-rule="evenodd" d="M397.113 467.825l-7.572-3.818-2.324 4.633c-.878 1.741-1.096 3.661-.582 5.097l1.675 4.654c.625 1.745 2.85 1.258 3.914-.859l4.889-9.707z" fill="#FCB614"/><path fill-rule="evenodd" clip-rule="evenodd" d="M417.173 445.828l-21.853-11.013.225 4.772 17.654 8.896 3.974-2.655zm-7.517 9.679l-17.649-8.9-.175 4.571 14.254 7.186 3.57-2.857zm-7.255 10.316l-14.376-7.246-.491 4.413 11.609 5.852 3.258-3.019zm102.822-221.796l12.148 6.123L422.1 439.029l-12.148-6.124 95.271-188.878z" fill="#0A1658"/><path fill-rule="evenodd" clip-rule="evenodd" d="M495.019 234.053l24.298 12.249-1.943 3.851-24.298-12.249 1.943-3.851z" fill="#FEB701"/><path fill-rule="evenodd" clip-rule="evenodd" d="M499.544 231.506l19.124 9.641-1.943 3.851-19.124-9.641 1.943-3.851z" fill="#FEB701"/><path fill-rule="evenodd" clip-rule="evenodd" d="M509.105 236.325l9.564 4.822-1.943 3.851-9.564-4.821 1.943-3.852zm-1.942 3.853l12.147 6.123-1.942 3.851-12.148-6.123 1.943-3.851z" fill="#E0A010"/><path d="M476.673 289.689l-12.92 25.622c-.435.863-1.354 1.278-2.05.926-.697-.352-.907-1.333-.471-2.2l12.919-25.618c.436-.863 1.354-1.278 2.051-.926.696.352.91 1.334.471 2.196zm-17.812 32.171c-.697-.352-1.615.064-2.051.926l-25.526 50.615c-.432.863-.222 1.848.475 2.196.697.349 1.615-.063 2.05-.925l25.523-50.616c.447-.862.237-1.828-.471-2.196z" fill="#C9E2F4"/><path fill-rule="evenodd" clip-rule="evenodd" d="M487.661 319.53s4.251-4.132 3.51-8.386c-.229-1.325.946-1.187 2.633-.273-.614-2.299-1.081-4.115-1.299-5.124-1.211-5.583-30.454-10.684-29.338.934 0 0 1.678 31.471 8.851 32.029 7.172.557 9.963-1.864 9.963-1.864s3.075-2.094 3.7-3.352l-3.768 8.868c.087 3.082.444 6.387 1.56 6.774 2.141.744 16.391-1.024 18.999-7.542 0 0-7.358-11.871-8.336-14.732-.978-2.861-2.889-6.984-6.475-7.332z" fill="#FF7977"/><path fill-rule="evenodd" clip-rule="evenodd" d="M491.171 311.148c.741 4.254-3.51 8.385-3.51 8.385 3.586.349 5.497 4.468 6.475 7.333.978 2.865 8.336 14.732 8.336 14.732s-5.878-20.312-8.668-30.723c-1.694-.914-2.862-1.056-2.633.273zm-5.49 22.346c-.625 1.258-3.7 3.352-3.7 3.352s-.151 2.663-.068 5.516l3.768-8.868z" fill="#F45658"/><path fill-rule="evenodd" clip-rule="evenodd" d="M494.136 307.749c2.276-1.159 15.655-12.009 13.68-14.297-1.726-1.84-6.765-3.324-6.765-3.324s-.21-4.4-.558-6.003c-.348-1.602-9.781-5.587-18.651-5.797-8.87-.209-33.573 19.271-33.573 19.271s12.104 9.268 14.107 10.059c2.002.792 15.785-3.818 15.785-3.818l-3.167 2.049 6.662 4.329 1.674 6.518 2.284-5.216c3.444-8.381 6.052-1.582 5.589 1.492 0 0 .649-4.099 2.933-5.263z" fill="#303D8B"/><path fill-rule="evenodd" clip-rule="evenodd" d="M496.966 322.311s9.532-24.431 11.21-27.015c.396-.629.194-1.254-.36-1.844 1.979 2.288-11.404 13.138-13.68 14.297-2.276 1.16-2.933 5.263-2.933 5.263-.467 3.071 5.763 9.299 5.763 9.299z" fill="#0A1658"/><path fill-rule="evenodd" clip-rule="evenodd" d="M458.291 351.242c-.835-1.86-5.213-3.257-7.358-3.257-2.145 0-13.129 4.234-13.129 4.234s-.744-2.176-.372-3.957c0 0-3.333.938-3.614 3.636-.281 2.699-2.814 6.225-2.814 6.225-2.047 2.604-29.244 19.932-29.802 31.38a25.465 25.465 0 00.341 5.9c.688 1.274 2.177 1.432 5.248-1.714 7.038-7.214 22.879-18.246 30.874-25.408a6.893 6.893 0 011.33-1.223c3.353-1.86 13.533-4.563 14.871-6.331 1.338-1.769 5.265-7.634 4.425-9.485z" fill="#FF7977"/><path fill-rule="evenodd" clip-rule="evenodd" d="M408.837 404.686c2.213.17 22.736-29.761 28.847-36.405-8.015 7.162-23.856 18.202-30.874 25.408-3.071 3.166-4.56 2.988-5.248 1.714 1.239 6.826 5.335 9.133 7.275 9.283z" fill="#F45658"/><path fill-rule="evenodd" clip-rule="evenodd" d="M530.037 359.1c-13.161-8.226-27.498 4.504-42.376 21.764 0 0 14.795 18.44 18.18 25.769 14.795-7.218 25.332-16.913 28.499-21.815 4.639-7.285.289-22.849-4.303-25.718z" fill="#fff"/><path fill-rule="evenodd" clip-rule="evenodd" d="M501.368 399.198c-5.585-8.227-13.707-18.353-13.707-18.353-.278.32-.559.645-.836.973-18.132 21.178-47.312 26.813-51.876 27.28-4.564.467-13.41-4.376-15.088-3.723-1.679.653 4.563 4.467 3.819 4.653-.744.186-11.455.558-13.133.653-1.678.095-3.82 7.261-3.634 7.914.186.653 5.498 3.447 8.012 4.005 2.513.558 9.218-1.12 14.53-1.769 1.813-.225 5.371-.487 10.343-.926 10.628-1.017 49.865-5.73 61.57-20.707z" fill="#FF7977"/><path fill-rule="evenodd" clip-rule="evenodd" d="M505.841 406.613c-.879-1.899-2.522-4.543-4.473-7.415-11.705 14.977-50.942 19.69-61.57 20.707 9.571-.843 24.383-2.331 42.092-5.405a90.24 90.24 0 0023.951-7.887z" fill="#F45658"/><path fill-rule="evenodd" clip-rule="evenodd" d="M565.882 460.331a29.093 29.093 0 00-.079-3.111c-.562-3.165-80.098-8.096-89.225-.882 0 0-3.959 1.31-9.896 3.462.024 0 25.847 1.662 36.514 9.703 10.668 8.041 48.524-.76 62.686-9.172zm-28.301 24.241c-9.131 7.55-29.338 12.698-29.338 12.698s13.165 26.398 26.196 43.635c-2.478-5.054-4.624-11.694-5.625-20.324-2.458-21.202 5.118-32.092 8.767-36.009zm1.853-1.73a15.24 15.24 0 00-1.853 1.73 18.71 18.71 0 001.853-1.73z" fill="#0A1658"/><path fill-rule="evenodd" clip-rule="evenodd" d="M620.727 541.542l-.791-12.16a1.392 1.392 0 00-1.366-1.282h-4.548a1.365 1.365 0 00-1.358 1.214c-20.277.725-42.867.586-45.008-3.711-3.46-6.941-1.817-52.63-1.781-65.257-14.163 8.397-52.011 17.214-62.686 9.173-10.676-8.041-36.491-9.703-36.515-9.703-17.376 6.284-51.773 19.754-54.271 28.705-2.098 7.518 1.053 31.767 3.709 48.866a2.12 2.12 0 00-1.389 2.6l1.373 4.807c.2.7.746 1.247 1.445 1.449.17.051.345.08.522.087l12.532.423c.289.009.576-.042.843-.15a2.115 2.115 0 001.291-1.46l1.06-4.294a2.123 2.123 0 00-1.904-2.623c.768-14.246 1.912-34.692 6.5-36.01 5.312-1.535 47.312 2.145 69.85-4.934 0 0 20.187-5.144 29.338-12.698a15.24 15.24 0 011.853-1.73 18.71 18.71 0 01-1.853 1.73c-3.649 3.917-11.225 14.807-8.767 36.009 1.001 8.63 3.167 15.27 5.625 20.324 6.76 8.943 13.489 15.432 18.326 14.467 9.464-1.868 40.77-8.263 60.442-12.291a1.37 1.37 0 001.654 1.088l4.814-1.12a1.373 1.373 0 001.056-1.424l.004-.095z" fill="#303D8B"/><path fill-rule="evenodd" clip-rule="evenodd" d="M431.605 555.463a89.63 89.63 0 01-.159-8.86 2.075 2.075 0 01-.843.15l-12.512-.423a2.096 2.096 0 01-.522-.087 481.08 481.08 0 001.583 9.034l12.488.186h-.035zm188.248-26.445l.874 12.524-.791-12.16a1.375 1.375 0 00-.083-.364z" fill="#FF7977"/><path fill-rule="evenodd" clip-rule="evenodd" d="M630.678 528.456c-3.289.19-6.95.395-10.825.561.043.118.069.24.079.365l.791 12.16 9.152-1.876s-1.12-7.906.803-11.21z" fill="#FF7977"/><path d="M612.922 531.546v9.359" stroke="#050D2D" stroke-width="2" stroke-linecap="round"/><path d="M417.549 537.343l12.694.879m-6.349-3.225s-6.195-42.341 6.333-47.758c12.528-5.418 77.442-17.728 87.9-34.51" stroke="#C9E2F3" stroke-width="2" stroke-linecap="round"/><path fill-rule="evenodd" clip-rule="evenodd" d="M433.358 569.15a119.815 119.815 0 01-1.754-13.675l-12.488-.186s-25.419 9.778-30.023 13.707c7.094.241 30.269.969 44.265.154z" fill="#303D8B"/><path fill-rule="evenodd" clip-rule="evenodd" d="M388.381 569.906c-.42 2.968 45.262 2.026 45.262 1.013 0-.198-.111-.815-.285-1.781-13.996.827-37.171.099-44.265-.154a1.86 1.86 0 00-.712.922z" fill="#C8E1F3"/><path d="M411.224 558.418l1.405 1.841m-3.855-.835l1.452 2.168m-3.447-1.333l1.207 2.14" stroke="#C9E2F3" stroke-width="2" stroke-linecap="round"/><path fill-rule="evenodd" clip-rule="evenodd" d="M642.596 552.736c.903-4.107 2.229-21.245 1.283-25.088-2.07.119-6.104.396-11.289.697l-1.912.11c-1.923 3.305-.791 11.211-.791 11.211s-.931 7.518-2.609 8.44c-1.282.717-5.937 4.155-8.233 6.146.075.004 22.59 2.857 23.551-1.516z" fill="#0A1658"/><path fill-rule="evenodd" clip-rule="evenodd" d="M617.771 555.558c-.372.93 21.607 2.793 25.518.186 3.911-2.608 3.804-28.013 2.086-28.159-.127 0-.645 0-1.496.063.946 3.843-.396 20.973-1.283 25.088-.961 4.353-23.476 1.52-23.559 1.516a6.056 6.056 0 00-1.266 1.306z" fill="#C8E1F3"/><path d="M629.281 543.168l3.764.708m-4.191 1.077l3.669.526m-2.866-4.317l3.653.688" stroke="#C9E2F3" stroke-width="2" stroke-linecap="round"/><path fill-rule="evenodd" clip-rule="evenodd" d="M82.25 379.582c.63 9.992 2.094 16.307 2.406 20.28a61.829 61.829 0 003.927-.542c18.322-3.079 51.912-11.511 60.252-14.732.566-9.165 1.444-20.494 2.327-31.162-6.555 1.828-28.622 7.863-37.274 8.654-10.217.93-32.755-.186-31.638 17.502zm71.991-79.327s16.811 0 21.648.561c-.372-8.369.039-17.996.281-22.412-11.99 1.531-23.706 1.511-31.428.482-14.669-1.954-23.326-1.397-23.326-1.397-.792.04-1.583.099-2.347.167a77.314 77.314 0 012.129 9.892s-19.763 4.147-24.98 9.735c-5.217 5.587-19-.491-24.87 18.748-5.87 19.24 40.331 35.614 48.9 35.812 6.231.139 22.8-2.485 31.377-3.925 1.366-16.062 2.616-29.358 2.616-29.358s1.259-15.65 0-18.305z" fill="#fff"/><path fill-rule="evenodd" clip-rule="evenodd" d="M154.241 318.552a114.243 114.243 0 0022.903-7.008c-.689-2.742-1.069-6.581-1.255-10.732-4.837-.562-21.648-.562-21.648-.562 1.259 2.66 0 18.302 0 18.302zm-33.993 33.283c-8.569-.186-54.761-16.572-48.9-35.812 5.863-19.239 19.657-13.161 24.87-18.748 5.213-5.588 24.98-9.735 24.98-9.735a77.314 77.314 0 00-2.129-9.892c-20.749 1.84-34.437 13.703-43.338 26.089-9.223 12.848-6.706 29.749-4.75 45.672 1.001 8.168-.052 26.996-1.358 48.087 2.137 1.682 6.436 3.264 15.041 2.374-.313-3.957-1.777-10.288-2.406-20.28-1.117-17.688 21.421-16.572 31.638-17.502 8.652-.792 30.719-6.826 37.274-8.654.154-1.864.313-3.708.463-5.516-8.585 1.432-25.154 4.056-31.385 3.917z" fill="#C9E2F4"/><path fill-rule="evenodd" clip-rule="evenodd" d="M136.742 236.142s-8.391 5.54-14.819 4.618c-6.428-.922-2.514 6.703-4.841 8.563-2.328 1.86 2.513 11.547 2.513 11.547s-4.096 6.889-1.86 12.195c2.236 5.307 3.444 14.349 3.463 14.475 8.364 3.494 13.256-3.593 12.227-5.579-1.029-1.987-3-15.923-3-15.923 2.165-.072 7.473-1.188 8.518-10.055.772-6.522-1.136-15.528-2.201-19.841z" fill="#FF7977"/><path fill-rule="evenodd" clip-rule="evenodd" d="M119.595 260.87s-4.841-9.683-2.513-11.547c2.327-1.864-1.583-9.497 4.841-8.563 6.424.934 14.819-4.618 14.819-4.618-.051-.194-.095-.396-.142-.554-.309-1.223-.519-1.951-.519-1.951s-24.865-6.636-28.99 2.861c-4.124 9.497 5.799 12.639 5.799 12.639 1.888 5.52-2.652 30.169-2.652 30.169s1.682 3.747 9.524 7.578c.308.15.621.3.954.451.162.075.32.138.482.205-.019-.126-1.246-9.204-3.463-14.475-2.217-5.27 1.86-12.195 1.86-12.195z" fill="#F45658"/><path fill-rule="evenodd" clip-rule="evenodd" d="M141.112 208.427c-3.495-1.116-7.615 5.797-7.825 2.374-.21-3.423-3.412-13.197-5.759-7.19-.555 1.42-1.061 2.789-1.584 4.072a16.186 16.186 0 01-6.832 10.173c-5.87 3.839-18.441 16.968-11.945 17.035 6.495.068 9.776 4.606 8.977 13.371.198.175.439-.035.732-.87 1.326-3.771.629-6.284 2.723-7.61 2.094-1.325 9.421 2.988 17.147-3.64 7.727-6.628 7.857-26.596 4.366-27.715z" fill="#303D8B"/><path fill-rule="evenodd" clip-rule="evenodd" d="M107.163 234.892c-6.496-.068 6.075-13.197 11.945-17.036a16.186 16.186 0 006.832-10.173c-1.698 4.127-3.614 7.308-8.09 8.215-5.866 1.187-5.866 2.097-6.705 2.864-.84.768-21.375 18.713-15.018 23.743 6.357 5.029 16.526 10.882 17.02 15.496 0 0 1.552-7.186.503-9.699 0 0-6.076-.071-5.795-3.981.281-3.909 3.42-4.891 7.402-2.097 0 0 .17 5.429.875 6.038.807-8.764-2.474-13.299-8.969-13.37z" fill="#0A1658"/><path fill-rule="evenodd" clip-rule="evenodd" d="M100.782 313.289c-7.635-4.467-20.302-16.327-27.707-2.948-1.018 1.836-6.005 16.588 2.794 25.666 5.348 5.516 15.718 12.627 27.969 16.893 2.679-10.487 9.575-26.275 12.48-32.718-6.836-2.477-12.413-5.077-15.536-6.893z" fill="#fff"/><path fill-rule="evenodd" clip-rule="evenodd" d="M207.733 282.345l-1.243-12.267c-8.534 4.297-19.538 6.933-30.32 8.31-.242 4.416-.653 14.043-.281 22.413 0 .015 31.594-6.569 31.844-18.456z" fill="#FF7977"/><path fill-rule="evenodd" clip-rule="evenodd" d="M208.726 292.154l-.993-9.809c-.25 11.871-31.844 18.471-31.844 18.471.186 4.151.566 7.99 1.255 10.732 19.62-8.286 31.582-19.394 31.582-19.394z" fill="#F45658"/><path fill-rule="evenodd" clip-rule="evenodd" d="M77.967 463.599c0-9.279 6.69-63.737 6.69-63.737-8.598.906-12.897-.676-15.042-2.374-1.235 20.027-2.7 42.092-2.834 59.028-.226 28.253-11.332 72.264-16.743 91.733 0 0 27.929-75.371 27.929-84.65zm57.184 13.561c1.116-16.386-17.325-52.514-17.325-52.514-.372 4.471-7.449 13.596-7.449 13.596 17.812 28.998 24.351 67.753 26.915 92.936 0 0-3.261-37.632-2.141-54.018z" fill="#0A1658"/><path fill-rule="evenodd" clip-rule="evenodd" d="M64.703 554.386l-14.155-4.151a2.507 2.507 0 01-.918-.486c-1.04 3.707-1.829 6.331-2.22 7.577-.111.353-.226.705-.345 1.061l16.09 2.813s1.07-2.568 2.826-6.774a2.553 2.553 0 01-1.278-.04zm75.918-3.688a3.138 3.138 0 01-1.82-.451c.205 3.589.312 5.861.431 6.427.135 1.035.144 2.084.028 3.122l15.041-1.445c-.079-.482.158-3.783.59-8.784-.388.203-.814.32-1.251.344l-13.019.787z" fill="#FF7977"/><path fill-rule="evenodd" clip-rule="evenodd" d="M149.492 398.133c-.345-2.125-1.212-4.515-.657-13.545-8.34 3.221-41.93 11.653-60.252 14.732a78.348 78.348 0 01-3.927.542s-6.69 54.458-6.69 63.737c0 7.673-19.09 60.543-25.7 78.619a2.596 2.596 0 00-2.85 1.979l-.668 2.956a2.596 2.596 0 001.8 3.063l14.155 4.15a2.54 2.54 0 001.278.04 2.592 2.592 0 001.778-1.373l1.187-2.374a2.596 2.596 0 00-.245-2.711c7.572-18.016 20.939-49.463 27.153-61.869 8.942-17.878 14.531-47.857 14.531-47.857s7.077-9.125 7.449-13.596c0 0 18.441 36.128 17.325 52.514-1.116 16.386 2.153 54.022 2.153 54.022.396 3.696.673 7.099.907 10.134a3.165 3.165 0 00-1.366 3.019l.459 3.617a3.166 3.166 0 003.325 2.75l13.038-.791a3.054 3.054 0 001.251-.344 3.165 3.165 0 001.678-2.299l.63-3.89a3.165 3.165 0 00-1.453-3.166c1.916-20.327 5.146-51.39 6.005-59.126 1.302-11.539-10.988-74.924-12.294-82.933z" fill="#303D8B"/><path d="M138.816 541.102l15.635-1.048m-101.354 2.655l13.553 4.511m-6.776-4.511s18.651-54.002 20.14-68.715c1.488-14.712 4.642-74.132 4.642-74.132" stroke="#C9E2F3" stroke-width="2" stroke-linecap="round"/><path opacity=".1" fill-rule="evenodd" clip-rule="evenodd" d="M316.433 268.329l-49.628-36.14a11.541 11.541 0 00-12.104-.851 12.226 12.226 0 00-4.125 3.399l-22.475 30.865a4.799 4.799 0 00-2.45-.791c-.312.048.028 2.216-.059 4.353l-2.193 2.885a4.073 4.073 0 01-1.548-1.769 2.045 2.045 0 00-.74 0l10.054 63.954a10.746 10.746 0 002.609-1.583l23.321 16.98c5.146 3.743 12.085 2.77 15.865-2.176.143-.101.266-.227.364-.372l45.662-62.53a10.616 10.616 0 002.086-6.248 11.445 11.445 0 00-4.639-9.976z" fill="#000"/><path fill-rule="evenodd" clip-rule="evenodd" d="M232.714 217.626l62.165 45.267a3.916 3.916 0 01.861 5.471l-.001.001-54.787 75.19a3.915 3.915 0 01-5.47.86l-62.166-45.266a3.916 3.916 0 01-.861-5.471l.001-.001 54.787-75.19a3.915 3.915 0 015.47-.86l.001-.001z" fill="#C9E2F4"/><path fill-rule="evenodd" clip-rule="evenodd" d="M227.622 233.741l14.203 10.342a1.55 1.55 0 01.34 2.165l-10.346 14.198a1.55 1.55 0 01-2.164.34l-14.203-10.342a1.548 1.548 0 01-.34-2.164v-.001l10.346-14.197a1.548 1.548 0 012.164-.34v-.001zm20.097 19.647l30.563 22.256c.762.555.93 1.622.375 2.384l-5.39 7.397a1.707 1.707 0 01-2.384.375l-30.564-22.256a1.708 1.708 0 01-.375-2.384h.001l5.39-7.397a1.707 1.707 0 012.384-.374v-.001zm-36.69 3.13l14.202 10.342c.692.503.845 1.472.341 2.164l-10.346 14.198a1.55 1.55 0 01-2.165.34l-14.203-10.341a1.55 1.55 0 01-.34-2.165l10.346-14.198a1.55 1.55 0 012.164-.34h.001zm20.096 19.647l30.564 22.256c.762.555.929 1.622.375 2.383l-.001.001-5.39 7.397a1.706 1.706 0 01-2.383.374l-30.564-22.256a1.705 1.705 0 01-.375-2.383v-.001l5.391-7.396a1.705 1.705 0 012.383-.375zm-36.693 3.131l14.203 10.341a1.55 1.55 0 01.34 2.165L198.629 306a1.55 1.55 0 01-2.164.34l-14.203-10.342a1.55 1.55 0 01-.341-2.164h.001l10.345-14.198a1.55 1.55 0 012.165-.34zm20.098 20.289l30.634 22.306c.762.555.93 1.622.375 2.384l-5.406 7.418a1.706 1.706 0 01-2.384.375l-30.634-22.306a1.707 1.707 0 01-.374-2.384l5.406-7.418a1.705 1.705 0 012.383-.375z" fill="#0A1658"/><path fill-rule="evenodd" clip-rule="evenodd" d="M207.151 274.027a1.476 1.476 0 01-.61-1.235l.158-5.346a1.478 1.478 0 012.953.087l-.095 3.166 8.459-3.079a1.477 1.477 0 111.005 2.77l-10.501 3.811a1.476 1.476 0 01-1.365-.19l-.004.016z" fill="#E6E9F8"/><path fill-rule="evenodd" clip-rule="evenodd" d="M219.995 311.987c-1.302.091-9.409 6.332-10.802 7.171-1.393.839-4.845 1.859-4.845 1.859l-4.354-3.141s.06 4.534-1.71 5.373c-1.769.839-28.594 5.212-48.06 4.377-11.511-.499-24.026-3.858-33.918-7.447-2.042 4.53-6.056 13.679-9.191 22.357 0 0 13.743 16.03 71.363 0 12.666-4.59 22.561-8.638 23.531-9.062 2.232-.961 12.48-3.707 14.713-6.331 2.232-2.624 6.242-8.286 6.242-9.216 0-.93-1.667-6.035-2.969-5.94z" fill="#FF7977"/><path fill-rule="evenodd" clip-rule="evenodd" d="M107.127 342.54c-1.326 3.664-2.494 7.245-3.289 10.36 7.916 2.77 16.624 4.325 25.257 3.498 12.361-1.187 33.154-7.966 49.394-13.85-57.619 16.022-71.362-.008-71.362-.008z" fill="#F45658"/><path fill-rule="evenodd" clip-rule="evenodd" d="M154.336 558.351l-15.041 1.445c-.36 4.78-1.848 12.805-2.03 16.481 5.593-.42 29.033-2.145 42.748-2.564-7.793-4.416-25.388-13.621-25.677-15.362z" fill="#303D8B"/><path fill-rule="evenodd" clip-rule="evenodd" d="M137.383 578.089c.935 1.674 46.197-1.12 46.197-2.05 0-.205-1.409-1.072-3.606-2.326-13.696.419-37.136 2.144-42.729 2.564-.044.902-.008 1.543.138 1.812z" fill="#C8E1F3"/><path d="M159.205 562.011l-2.533 2.264m4.987-.799l-2.747 2.386m5.086-1.037l-2.339 2.489" stroke="#C9E2F3" stroke-width="2" stroke-linecap="round"/><path fill-rule="evenodd" clip-rule="evenodd" d="M87.696 576.763c-6.179-4.582-24.54-15.563-24.54-15.563l-16.09-2.813c-2.031 6.014-5.218 12.742-6.191 15.864 7.251.688 34.737 3.209 46.821 2.512z" fill="#303D8B"/><path fill-rule="evenodd" clip-rule="evenodd" d="M89.699 578.611c0-.257-.752-.922-2.003-1.848-12.084.677-39.582-1.824-46.813-2.512a5.136 5.136 0 00-.29 1.361c0 1.99 49.106 4.539 49.106 2.999z" fill="#C8E1F3"/><path d="M67.351 563.733l-3.915 1.915m6.314-.451l-3.769 2.105m5.989-.74l-3.626 2.394" stroke="#C9E2F3" stroke-width="2" stroke-linecap="round"/><defs><linearGradient id="paint0_linear" x1="184.676" y1="297.209" x2="430.121" y2="679.684" gradientUnits="userSpaceOnUse"><stop stop-color="#8D8DEC" stop-opacity=".167"/><stop offset="1" stop-color="#5454D4" stop-opacity=".01"/></linearGradient><linearGradient id="paint1_linear" x1="339.909" y1="105.681" x2="344.926" y2="557.674" gradientUnits="userSpaceOnUse"><stop stop-color="#303D8B"/><stop offset=".81" stop-color="#111E62"/><stop offset="1" stop-color="#0A1658"/></linearGradient></defs></svg>