<?xml version="1.0" standalone="no"?>
<!DOCTYPE svg PUBLIC "-//W3C//DTD SVG 20010904//EN"
 "http://www.w3.org/TR/2001/REC-SVG-20010904/DTD/svg10.dtd">
<svg version="1.0" xmlns="http://www.w3.org/2000/svg"
 width="501.000000pt" height="498.000000pt" viewBox="0 0 501.000000 498.000000"
 preserveAspectRatio="xMidYMid meet">

<g transform="translate(0.000000,498.000000) scale(0.100000,-0.100000)"
fill="#000000" stroke="none">
<path d="M2310 4964 c-19 -2 -78 -9 -130 -15 -189 -21 -469 -100 -678 -192
-191 -84 -429 -232 -576 -357 -252 -215 -438 -441 -583 -705 -56 -102 -143
-284 -143 -299 0 -4 -9 -26 -19 -49 -49 -107 -108 -353 -137 -562 -16 -119
-18 -444 -4 -570 21 -177 85 -455 132 -565 5 -14 21 -56 35 -93 57 -159 227
-451 350 -602 250 -309 560 -558 873 -702 52 -24 109 -50 125 -58 108 -52 404
-136 569 -161 200 -30 496 -34 706 -9 200 23 454 89 645 168 67 28 306 150
341 175 16 10 65 43 109 72 209 139 421 340 575 546 32 44 67 90 78 104 10 14
27 41 38 60 10 19 22 37 25 40 4 3 16 23 28 45 12 22 32 58 44 80 21 37 70
141 115 245 11 25 38 104 60 175 92 298 117 481 109 825 -5 245 -16 331 -62
518 -26 105 -84 282 -110 339 -8 17 -15 34 -15 38 0 14 -96 203 -149 294 -55
93 -160 245 -211 305 -130 153 -222 245 -361 361 -45 37 -188 140 -248 178
-63 39 -297 161 -366 189 -155 65 -410 136 -585 164 -91 14 -502 27 -580 18z
m835 -1087 l625 -622 -228 -228 -227 -227 -395 395 c-217 217 -399 395 -403
395 -4 0 -181 -173 -394 -385 -213 -212 -390 -385 -395 -385 -4 0 -107 99
-229 221 -221 220 -221 220 -203 242 26 29 1216 1217 1221 1217 2 0 284 -280
628 -623z m-379 -1148 l241 -241 -246 -244 -246 -244 -245 245 -244 244 242
241 c133 132 245 240 249 240 4 0 116 -108 249 -241z m-1356 -234 c-6 -7 -8
-14 -5 -16 2 -3 -97 -106 -220 -229 l-225 -225 -232 232 -232 232 234 235 235
234 227 -226 c157 -157 224 -229 218 -237z m2898 -234 l-229 -228 -230 229
-231 230 229 228 228 228 231 -230 231 -230 -229 -227z m-1396 -486 c218 217
400 395 405 395 4 0 108 -100 231 -223 l222 -222 -626 -626 -626 -625 -624
619 c-526 524 -622 623 -611 635 6 9 109 112 227 229 l214 214 396 -396 395
-395 397 395z"/>
</g>
</svg>
