<?xml version="1.0" standalone="no"?>
<!DOCTYPE svg PUBLIC "-//W3C//DTD SVG 20010904//EN"
 "http://www.w3.org/TR/2001/REC-SVG-20010904/DTD/svg10.dtd">
<svg version="1.0" xmlns="http://www.w3.org/2000/svg"
 width="512.000000pt" height="512.000000pt" viewBox="0 0 512.000000 512.000000"
 preserveAspectRatio="xMidYMid meet">

<g transform="translate(0.000000,512.000000) scale(0.100000,-0.100000)"
fill="#000000" stroke="none">
<path d="M2503 3612 c-34 -26 -43 -64 -43 -173 l0 -99 -89 0 c-112 0 -180 -13
-258 -49 -114 -54 -194 -164 -213 -296 -5 -38 -10 -234 -10 -435 0 -201 5
-396 10 -435 19 -130 95 -237 209 -295 70 -35 148 -50 263 -50 l88 0 0 -99 c0
-54 5 -112 11 -129 29 -83 149 -83 178 0 6 17 11 75 11 129 l0 99 88 0 c167 0
278 37 363 123 67 66 102 143 107 236 4 72 3 77 -23 104 -21 20 -37 27 -67 27
-58 0 -93 -38 -101 -110 -8 -70 -47 -127 -107 -157 -43 -22 -52 -23 -360 -23
-308 0 -317 1 -360 23 -26 13 -57 40 -75 65 l-30 44 0 446 c0 432 1 448 20
482 12 19 40 48 64 65 l43 30 338 0 338 0 43 -30 c54 -38 78 -79 86 -146 8
-71 44 -109 101 -109 28 0 47 7 67 26 26 24 27 28 23 104 -8 135 -88 253 -211
311 -78 36 -146 49 -258 49 l-89 0 0 99 c0 111 -11 153 -45 175 -32 21 -84 20
-112 -2z"/>
</g>
</svg>
