<?xml version="1.0" standalone="no"?>
<!DOCTYPE svg PUBLIC "-//W3C//DTD SVG 20010904//EN"
 "http://www.w3.org/TR/2001/REC-SVG-20010904/DTD/svg10.dtd">
<svg version="1.0" xmlns="http://www.w3.org/2000/svg"
 width="256.000000pt" height="256.000000pt" viewBox="0 0 256.000000 256.000000"
 preserveAspectRatio="xMidYMid meet">

<g transform="translate(0.000000,256.000000) scale(0.100000,-0.100000)"
fill="#000000" stroke="none">
<path d="M1145 2519 c-113 -15 -339 -77 -287 -79 17 0 15 -27 -4 -34 -24 -9
-26 -8 -19 15 6 18 4 20 -17 14 -108 -32 -434 -261 -429 -302 1 -4 -3 -8 -8
-8 -16 0 -114 -129 -169 -222 -43 -72 -52 -95 -52 -135 0 -40 -3 -48 -19 -48
-41 0 -92 -236 -92 -430 0 -143 11 -227 47 -355 27 -96 118 -295 134 -295 6 0
10 -6 10 -14 0 -19 92 -141 158 -209 59 -60 170 -149 232 -186 83 -49 131 -71
154 -71 14 0 33 -9 44 -20 20 -21 105 -50 222 -75 103 -22 324 -32 344 -16 8
7 20 10 26 6 18 -11 148 15 260 52 121 40 208 84 316 157 88 61 244 212 244
237 0 18 23 42 32 33 6 -6 60 73 107 157 19 35 29 63 25 75 -4 14 -3 15 4 6 7
-10 16 5 34 55 54 145 82 269 64 277 -7 3 -6 8 4 15 20 14 22 347 2 360 -7 4
-10 15 -6 24 10 28 -52 224 -104 327 -75 151 -228 348 -259 335 -10 -3 -13 -1
-10 9 7 18 -23 45 -42 38 -8 -2 -11 0 -7 6 7 12 -68 79 -122 107 -20 11 -39
23 -42 26 -3 4 -41 25 -85 47 -91 45 -216 87 -323 108 -97 19 -279 25 -367 13z
m955 -349 c0 -5 -4 -10 -10 -10 -5 0 -10 5 -10 10 0 6 5 10 10 10 6 0 10 -4
10 -10z m-513 -137 c-159 -2 -415 -2 -570 0 -155 1 -26 2 288 2 314 0 440 -1
282 -2z m325 -135 c-1 -68 -3 -138 -5 -157 l-2 -34 -192 2 c-127 1 -193 -1
-193 -8 0 -7 66 -12 183 -14 l182 -2 -187 -3 -188 -2 0 -50 c0 -48 1 -50 28
-51 l27 -1 -30 -7 -30 -7 30 -6 c17 -3 47 -5 68 -4 20 1 37 -2 37 -6 0 -4 15
-8 33 -9 17 0 69 -8 114 -18 45 -10 80 -14 77 -9 -3 4 9 8 25 8 17 0 34 0 39
1 4 0 9 -7 10 -17 3 -10 0 -14 -7 -10 -6 4 -11 3 -11 -1 0 -5 17 -15 38 -22
20 -8 48 -22 62 -33 22 -18 25 -18 30 -3 5 15 7 16 19 1 11 -13 11 -17 -2 -22
-9 -3 -13 -12 -10 -21 4 -10 8 -11 13 -3 4 6 7 -2 6 -18 -1 -17 -3 -29 -5 -27
-6 7 -39 -38 -36 -50 1 -5 0 -6 -3 -2 -2 4 -11 2 -19 -5 -8 -7 -20 -13 -27
-14 -6 -1 -33 -12 -61 -25 -27 -12 -56 -21 -63 -20 -7 1 -19 -5 -28 -14 -8 -8
-21 -15 -27 -15 -7 0 -6 4 3 10 9 6 10 10 3 10 -6 0 -14 -4 -18 -9 -3 -5 -18
-10 -33 -10 -59 1 -175 -20 -184 -33 -8 -10 -11 -10 -15 0 -5 13 -41 16 -67 6
-14 -5 -16 -41 -16 -295 l0 -289 -166 0 c-147 0 -168 -2 -180 -18 -12 -15 -13
-14 -4 11 6 16 10 143 10 301 l0 273 -25 11 c-34 16 -75 15 -75 0 0 -9 -3 -9
-9 1 -9 13 -32 12 -86 -3 -11 -4 -6 1 10 9 l30 16 -32 -5 c-18 -3 -33 -2 -33
3 0 7 -55 18 -115 23 -5 0 -54 16 -107 34 -53 19 -105 34 -115 34 -15 0 -16 2
-3 10 13 8 12 10 -2 10 -10 0 -18 5 -18 11 0 5 -4 8 -8 5 -15 -9 -12 66 4 93
15 25 102 70 167 86 15 4 27 10 27 14 0 4 8 8 18 8 52 -1 73 4 66 14 -4 8 3 9
26 4 19 -4 30 -3 27 2 -3 5 15 10 41 10 26 1 67 3 92 5 25 3 62 5 83 6 l37 2
0 80 0 80 -210 0 -210 0 0 145 0 145 573 3 c314 1 583 3 597 5 l25 2 -3 -122z
m-1752 -208 c0 -5 -5 -10 -11 -10 -5 0 -7 5 -4 10 3 6 8 10 11 10 2 0 4 -4 4
-10z m875 0 c4 -6 -10 -10 -35 -10 -25 0 -39 4 -35 10 3 6 19 10 35 10 16 0
32 -4 35 -10z m85 -100 c0 -5 -6 -10 -14 -10 -8 0 -18 5 -21 10 -3 6 3 10 14
10 12 0 21 -4 21 -10z m512 -2 c-8 -8 -17 -8 -34 0 -22 10 -21 11 12 11 26 1
31 -2 22 -11z m101 -35 c-7 -2 -19 -2 -25 0 -7 3 -2 5 12 5 14 0 19 -2 13 -5z
m-1083 -43 c0 -5 -13 -10 -30 -10 -16 0 -30 5 -30 10 0 6 14 10 30 10 17 0 30
-4 30 -10z m1375 -50 c10 -11 16 -20 13 -20 -3 0 -13 9 -23 20 -10 11 -16 20
-13 20 3 0 13 -9 23 -20z m-1530 -80 c3 -5 1 -10 -4 -10 -6 0 -11 5 -11 10 0
6 2 10 4 10 3 0 8 -4 11 -10z m35 -40 c0 -5 -2 -10 -4 -10 -3 0 -8 5 -11 10
-3 6 -1 10 4 10 6 0 11 -4 11 -10z m217 -126 c-3 -3 -12 -4 -19 -1 -8 3 -5 6
6 6 11 1 17 -2 13 -5z m760 -456 c-1 -68 -3 -15 -3 117 0 132 2 187 3 123 2
-64 2 -172 0 -240z m0 -150 c-3 -8 -6 -5 -6 6 -1 11 2 17 5 13 3 -3 4 -12 1
-19z m-144 -45 c-24 -2 -62 -2 -85 0 -24 2 -5 4 42 4 47 0 66 -2 43 -4z"/>
<path d="M1496 1688 c-3 -13 -5 -48 -4 -78 1 -52 1 -51 8 20 8 79 7 96 -4 58z"/>
<path d="M1100 1504 c0 -14 3 -14 15 -4 13 11 15 7 14 -26 -1 -23 -3 -30 -6
-16 -2 12 -11 22 -19 22 -8 0 -14 4 -14 10 0 16 -43 22 -70 10 -23 -10 -22
-10 10 -5 29 4 32 3 16 -7 -14 -8 -28 -8 -50 0 -23 8 -45 8 -86 -2 -54 -13
-55 -13 -22 -20 17 -4 32 -12 32 -17 0 -14 -38 -11 -43 4 -4 9 -8 8 -18 -4
-10 -11 -23 -14 -44 -9 l-30 6 34 7 c19 4 32 10 28 13 -6 6 -56 -8 -116 -33
-27 -12 -31 -17 -20 -25 10 -7 5 -8 -18 -4 -19 3 -33 1 -33 -4 0 -10 21 -14
48 -11 6 1 12 -5 12 -13 0 -8 5 -16 12 -18 8 -3 9 -7 2 -11 -6 -3 -20 2 -32
13 -29 28 -66 35 -81 16 -9 -11 -10 -16 -2 -17 11 -2 25 -5 39 -9 4 -1 10 -2
15 -1 4 0 7 -3 7 -7 0 -13 107 -34 131 -27 15 5 19 4 14 -4 -4 -8 4 -12 27
-12 18 0 53 -2 78 -5 25 -4 82 -8 127 -10 69 -2 82 0 88 14 3 9 3 63 -1 119
-6 91 -9 103 -25 103 -11 0 -19 -7 -19 -16z m-196 -140 c25 -9 19 -24 -9 -24
-24 0 -32 10 -18 23 8 8 8 8 27 1z m56 -48 c0 -2 -9 -6 -20 -9 -11 -3 -20 -1
-20 4 0 5 9 9 20 9 11 0 20 -2 20 -4z"/>
<path d="M1488 1415 l-3 -110 -168 -3 c-128 -2 -168 -5 -164 -15 4 -13 247
-23 276 -11 9 3 61 5 116 5 74 -1 96 1 85 9 -11 9 -7 10 20 5 28 -5 32 -4 20
5 -13 10 -12 11 3 6 9 -3 24 -9 34 -13 11 -4 14 -3 9 6 -6 9 -1 10 18 5 36 -9
162 16 144 28 -9 7 -5 8 14 4 21 -5 57 3 86 20 1 0 0 9 -4 18 -6 16 -70 51
-86 48 -5 -1 -8 3 -8 8 0 6 -8 10 -19 10 -10 0 -35 7 -56 16 -20 8 -40 13 -43
10 -3 -3 -10 -2 -16 3 -20 16 -130 34 -134 22 -2 -6 -18 -10 -35 -10 l-32 1
30 8 30 7 -28 8 c-15 4 -38 5 -52 3 -13 -3 -26 0 -29 6 -2 6 -6 -38 -8 -99z
m34 73 c-6 -7 -12 -26 -15 -43 -4 -28 -4 -27 -6 7 -1 31 6 43 28 47 2 1 -1 -5
-7 -11z m38 -38 c0 -5 -9 -10 -21 -10 -11 0 -17 5 -14 10 3 6 13 10 21 10 8 0
14 -4 14 -10z m185 0 c3 -5 1 -10 -4 -10 -6 0 -11 5 -11 10 0 6 2 10 4 10 3 0
8 -4 11 -10z m58 -7 c-7 -2 -19 -2 -25 0 -7 3 -2 5 12 5 14 0 19 -2 13 -5z
m-296 -120 c-3 -10 -5 -2 -5 17 0 19 2 27 5 18 2 -10 2 -26 0 -35z m353 27 c0
-5 -7 -10 -15 -10 -8 0 -15 5 -15 10 0 6 7 10 15 10 8 0 15 -4 15 -10z m80 0
c-8 -5 -19 -10 -25 -10 -5 0 -3 5 5 10 8 5 20 10 25 10 6 0 3 -5 -5 -10z"/>
<path d="M1890 1500 c0 -5 5 -10 10 -10 6 0 10 5 10 10 0 6 -4 10 -10 10 -5 0
-10 -4 -10 -10z"/>
</g>
</svg>
